# xmcd
#
# Track frame offsets:
#	150
#	18410
#	36152
#	49507
#	62150
#	76632
#	93180
#	108117
#	123622
#	139572
#	152102
#	169115
#	187800
#	204332
#	219995
#
# Disc length: 3147 seconds
#
# Revision: 2
# Processed by: cddbd v1.5.1PL2 Copyright (c) Steve Scherf et al.
# Submitted via: audiograbber 1.83.01
#
DISCID=b60c490f
DTITLE=Music Maestro - MM6247
DYEAR=1900
DGENRE=Karaoke
TTITLE0=Wilkinsons, The - 26 Cents
TTITLE1=Kershaw, Sammy - Honky Tonk America
TTITLE2=Evans, Sara - Cryin' Game
TTITLE3=Petrone, Shana - Heaven Bound
TTITLE4=Wariner, Steve - Road Trippin'
TTITLE5=Seals, Brady - I Fell
TTITLE6=Stockton, Shana - Gonna Have To Fall
TTITLE7=Byrd, Tracy - I Wanna Feel That Way Again
TTITLE8=Brooks and Dunn - How Long Gone
TTITLE9=McCoy, Neal - Love Happens Like That
TTITLE10=Davis, Linda - I Wanna Remember This
TTITLE11=McCann, Lila - Yippy Ky Yay
TTITLE12=Diamond Rio - You're Gone
TTITLE13=Hayes, Wade - How Do You Sleep At Night
TTITLE14=Strait, George - True
EXTD=As Listed In KJ Pro
EXTT0=
EXTT1=
EXTT2=
EXTT3=
EXTT4=
EXTT5=
EXTT6=
EXTT7=
EXTT8=
EXTT9=
EXTT10=
EXTT11=
EXTT12=
EXTT13=
EXTT14=
PLAYORDER=
